# AST/ASF file generated using VICON BodyLanguage
# -----------------------------------------------
:version 1.10
:name VICON
:units
  mass 1.0
  length 0.45
  angle deg
:documentation
   .ast/.asf automatically generated from VICON data using
   VICON BodyBuilder and BodyLanguage model FoxedUp or BRILLIANT.MOD
:root
   order TX TY TZ RX RY RZ
   axis XYZ
   position 0 0 0  
   orientation 0 0 0 
:bonedata
  begin
     id 1 
     name lhipjoint
     direction 0.575328 -0.747301 0.332475 
     length 2.40933 
     axis 0 0 0  XYZ
  end
  begin
     id 2 
     name lfemur
     direction 0.34202 -0.939693 0  
     length 7.31453  
     axis 0 0 20  XYZ
    dof rx ry rz
    limits (-160.0 20.0)
           (-70.0 70.0)
           (-60.0 70.0)
  end
  begin
     id 3 
     name ltibia
     direction 0.34202 -0.939693 0   
     length 7.82185   
     axis 0 0 20   XYZ
    dof rx
    limits (-10.0 170.0)
  end
  begin
     id 4 
     name lfoot
     direction 0.0795993 -0.218697 0.972541   
     length 2.19173   
     axis -90 7.62852e-016 20   XYZ
    dof rx rz
    limits (-45.0 90.0)
           (-70.0 20.0)
  end
  begin
     id 5 
     name ltoes
     direction 1.53537e-011 -4.21894e-011 1   
     length 1.10023   
     axis -90 7.62852e-016 20   XYZ
    dof rx
    limits (-90.0 20.0)
  end
  begin
     id 6 
     name rhipjoint
     direction -0.513884 -0.783789 0.348708   
     length 2.29716  
     axis 0 0 0  XYZ 
  end
  begin
     id 7 
     name rfemur
     direction -0.34202 -0.939693 0   
     length 7.59573   
     axis 0 0 -20   XYZ
    dof rx ry rz
    limits (-160.0 20.0)
           (-70.0 70.0)
           (-70.0 60.0)
  end
  begin
     id 8 
     name rtibia
     direction -0.34202 -0.939693 0   
     length 7.66402   
     axis 0 0 -20   XYZ
    dof rx
    limits (-10.0 170.0)
 end
 begin
     id 9 
     name rfoot
     direction -0.137793 -0.378584 0.915253   
     length 2.27056  
     axis -90 -7.62852e-016 -20   XYZ
    dof rx rz
    limits (-45.0 90.0)
           (-20.0 70.0)
  end
  begin
     id 10 
     name rtoes
     direction -1.53493e-011 -4.22159e-011 1   
     length 1.11766   
     axis -90 -7.62852e-016 -20   XYZ
    dof rx
    limits (-90.0 20.0)
  end
  begin
     id 11 
     name lowerback
     direction -0.00732775 0.998356 -0.05685   
     length 2.16513   
     axis 0 0 0   XYZ
    dof rx ry rz
    limits (-20.0 45.0)
           (-30.0 30.0)
           (-30.0 30.0)
  end
  begin
     id 12 
     name upperback
     direction 0.0218081 0.999627 -0.0164647   
     length 2.16755   
     axis 0 0 0   XYZ
    dof rx ry rz
    limits (-20.0 45.0)
           (-30.0 30.0)
           (-30.0 30.0)
  end
  begin
     id 13 
     name thorax
     direction 0.02365 0.999661 0.0108914   
     length 2.16932   
     axis 0 0 0   XYZ
    dof rx ry rz
    limits (-20.0 45.0)
           (-30.0 30.0)
           (-30.0 30.0)
  end
  begin
     id 14 
     name lowerneck
     direction -0.0523929 0.978385 0.200044   
     length 1.63877   
     axis 0 0 0   XYZ
    dof rx ry rz
    limits (-20.0 45.0)
           (-30.0 30.0)
           (-30.0 30.0)
  end
  begin
     id 15 
     name upperneck
     direction 0.0448674 0.981321 -0.187074   
     length 1.69014   
     axis 0 0 0   XYZ
    dof rx ry rz
    limits (-20.0 45.0)
           (-30.0 30.0)
           (-30.0 30.0)
  end
  begin
     id 16
     name head
     direction 0.0199089 0.996118 -0.0857429  
     length 1.70094  
     axis 0 0 0   XYZ
    dof rx ry rz
    limits (-20.0 45.0)
           (-30.0 30.0)
           (-30.0 30.0)
  end
  begin
     id 17 
     name lclavicle
     direction 0.940366 0.30191 -0.156722  
     length 3.37521  
     axis 0 0 0   XYZ
    dof ry rz
    limits (-20.0 10.0)
           (0.0 20.0)
  end
  begin
     id 18 
     name lhumerus
     direction 1 -4.4897e-011 -1.7911e-027   
     length 5.25287   
     axis 180 -30 -90   XYZ
    dof rx ry rz
    limits (-60.0 90.0)
           (-90.0 90.0)
           (-90.0 90.0)
  end
  begin
     id 19
     name lradius
     direction 1 -4.48951e-011 1.04424e-027   
     length 3.51014   
     axis 180 -30 -90   XYZ
    dof rx
    limits (-10.0 170.0)
  end
  begin
     id 20
     name lwrist
     direction 1 -4.48997e-011 -9.5942e-028   
     length 1.75507   
     axis 8.48502e-016 90 90   XYZ
    dof ry
    limits (-180.0 0.0)
 end
  begin
     id 21 
     name lhand
     direction 1 -4.48831e-011 -1.90777e-027   
     length 0.706179   
     axis 1.22306e-015 90 90   XYZ
    dof rx rz
    limits (-90.0 90.0)
           (-45.0 45.0)
  end
  begin
     id 22 
     name lfingers
     direction 1 -4.49108e-011 -3.85244e-027   
     length 0.569339   
     axis 2.44611e-015 90 90   XYZ
    dof rx
    limits (0.0 90.0)
  end
  begin
     id 23
     name lthumb
     direction 0.707107 -6.34953e-011 0.707107   
     length 0.817461   
     axis -90 45 -1.62303e-014   XYZ
    dof rx rz
    limits (-45.0 45.0)
           (-45.0 45.0)
  end
  begin
     id 24 
     name rclavicle
     direction -0.905329 0.382405 -0.184787   
     length 3.30787  
     axis 0 0 0   XYZ 
    dof ry rz
    limits (-10.0 20.0)
           (-20.0 0.0)
  end
  begin
     id 25 
     name rhumerus
     direction -1 -4.48953e-011 -9.15316e-029  
     length 5.28721   
     axis 180 30 90   XYZ
    dof rx ry rz
    limits (-90.0 60.0)
           (-90.0 90.0)
           (-90.0 90.0)
  end
  begin
     id 26 
     name rradius
     direction -1 -4.48987e-011 9.37824e-028   
     length 3.50544   
     axis 180 30 90   XYZ
    dof rx
    limits (-10.0 170.0)
  end
  begin
     id 27 
     name rwrist
     direction -1 -4.48967e-011 -9.58414e-028   
     length 1.75272   
     axis 8.48502e-016 -90 -90   XYZ
    dof ry
    limits (-180.0 0.0)
  end
  begin
     id 28
     name rhand
     direction -1 -4.48904e-011 -1.91266e-027   
     length 0.884996   
     axis 1.22306e-015 -90 -90   XYZ
    dof rx rz
    limits (-90.0 90.0)
           (-45.0 45.0)
  end
  begin
     id 29
     name rfingers
     direction -1 -4.4909e-011 -3.85015e-027   
     length 0.713507   
     axis 2.44611e-015 -90 -90   XYZ
    dof rx
    limits (0.0 90.0)
  end
  begin
     id 30
     name rthumb
     direction -0.707107 -6.34853e-011 0.707107   
     length 1.02446   
     axis -90 -45 1.62303e-014   XYZ
    dof rx rz
    limits (-45.0 45.0)
           (-45.0 45.0)
  end
:hierarchy
  begin
    root lhipjoint rhipjoint lowerback
    lhipjoint lfemur
    lfemur ltibia
    ltibia lfoot
    lfoot ltoes
    rhipjoint rfemur
    rfemur rtibia
    rtibia rfoot
    rfoot rtoes
    lowerback upperback
    upperback thorax
    thorax lowerneck lclavicle rclavicle
    lowerneck upperneck
    upperneck head
    lclavicle lhumerus
    lhumerus lradius
    lradius lwrist
    lwrist lhand lthumb
    lhand lfingers
    rclavicle rhumerus
    rhumerus rradius
    rradius rwrist
    rwrist rhand rthumb
    rhand rfingers
  end

#!OML:ASF F:\twosubjects\two\Thursday\Session 1\justin.ASF
:FULLY-SPECIFIED
:DEGREES
220
root -0.400006 18.3194 13.5694 -170.369 12.0544 175.224
lowerback 6.71103 0.683135 7.57888
upperback 4.37994 2.11552 6.09615
thorax 0.79256 1.45936 1.95497
lowerneck -6.10946 -15.7335 -17.7153
upperneck 26.6127 -19.5783 7.90402
head 12.4724 -9.2957 3.0293
rclavicle 9.54166e-015 7.95139e-014
rhumerus 2.79259 -42.8574 -55.3965
rradius 29.1421
rwrist -24.5265
rhand 0.201877 14.2335
rfingers 7.12502
rthumb 25.7837 -14.0393
lclavicle 9.54166e-015 7.95139e-014
lhumerus -34.1653 -0.375829 83.4435
lradius 36.0946
lwrist -3.25533
lhand 1.24223 27.6945
lfingers 7.12502
lthumb 26.7797 55.8188
rfemur -31.6976 -8.43625 17.0476
rtibia 37.1486
rfoot -12.9287 -12.4467
rtoes -2.53826
lfemur -17.6232 1.97821 -18.7846
ltibia 28.8125
lfoot -7.90317 3.6509
ltoes -11.2072
221
root -0.407784 18.3245 13.5278 -170.213 12.3964 174.708
lowerback 6.61437 0.807299 7.18975
upperback 4.38172 2.22427 6.03423
thorax 0.838301 1.49793 2.10149
lowerneck -6.12367 -15.8003 -17.7468
upperneck 26.6193 -19.6295 7.79288
head 12.4767 -9.33215 2.98018
rclavicle -3.02153e-014 -6.36111e-014
rhumerus 2.67119 -41.9789 -55.1278
rradius 29.9178
rwrist -25.8958
rhand 0.943437 14.0869
rfingers 7.12502
rthumb 26.4937 -14.0809
lclavicle -3.02153e-014 -6.36111e-014
lhumerus -33.9988 -0.401338 83.4026
lradius 36.1314
lwrist -3.39922
lhand 1.08309 27.576
lfingers 7.12502
lthumb 26.6274 55.7236
rfemur -31.9429 -8.3021 16.4353
rtibia 37.2455
rfoot -13.0551 -12.5122
rtoes -3.83735
lfemur -17.7619 2.27269 -19.3754
ltibia 27.7925
lfoot -7.55672 3.64872
ltoes -12.8092
222
root -0.418539 18.3343 13.489 -169.948 12.3653 174.895
lowerback 6.81554 0.7729 7.56236
upperback 4.20744 2.25764 6.1852
thorax 0.553143 1.5184 2.03984
lowerneck -6.18844 -15.8532 -17.6692
upperneck 26.7124 -19.6111 7.48252
head 12.4774 -9.34147 2.85456
rclavicle 3.65764e-014 8.5875e-014
rhumerus 2.29769 -40.92 -54.6705
rradius 30.8043
rwrist -27.2839
rhand 1.86212 13.9748
rfingers 7.12502
rthumb 27.3727 -14.0572
lclavicle 3.65764e-014 8.5875e-014
lhumerus -34.0783 -0.70784 83.4724
lradius 36.2117
lwrist -3.25208
lhand 1.22492 28.0006
lfingers 7.12502
lthumb 26.7631 56.1274
rfemur -32.0202 -8.13684 16.5738
rtibia 37.2515
rfoot -13.117 -12.8415
rtoes -4.21985
lfemur -17.9822 2.37588 -19.1239
ltibia 26.9802
lfoot -7.17366 3.36435
ltoes -15.0459
223
root -0.426412 18.3349 13.4522 -169.797 12.5 174.971
lowerback 6.97001 0.757673 7.71775
upperback 4.2022 2.28975 6.31372
thorax 0.462561 1.54273 2.08152
lowerneck -6.35682 -15.8237 -17.4404
upperneck 26.6804 -19.5005 7.17524
head 12.4143 -9.30094 2.72276
rclavicle -3.02153e-014 -6.36111e-015
rhumerus 2.53997 -40.3532 -54.7087
rradius 31.4642
rwrist -28.0758
rhand 2.43233 13.9289
rfingers 7.12502
rthumb 27.918 -14.0158
lclavicle -3.02153e-014 -6.36111e-015
lhumerus -33.8114 -0.951543 83.5196
lradius 36.0684
lwrist -3.19259
lhand 0.974822 28.8094
lfingers 7.12502
lthumb 26.5237 56.9726
rfemur -32.0152 -7.97709 16.6053
rtibia 37.1881
rfoot -13.2217 -12.8933
rtoes -4.49009
lfemur -18.1155 2.43369 -18.9302
ltibia 26.3182
lfoot -6.95964 3.18544
ltoes -15.5194
224
root -0.430351 18.3341 13.4159 -169.801 12.8749 174.412
lowerback 6.80086 0.847541 7.38602
upperback 4.42519 2.32113 6.07779
thorax 0.78741 1.55438 2.02865
lowerneck -6.56169 -15.7954 -17.2414
upperneck 26.611 -19.5229 7.3162
head 12.4194 -9.28052 2.72913
rclavicle 2.38542e-014 1.145e-013
rhumerus 3.16362 -40.3015 -55.333
rradius 32.0928
rwrist -28.5933
rhand 2.26198 13.8121
rfingers 7.12502
rthumb 27.7551 -14.159
lclavicle 2.38542e-014 1.145e-013
lhumerus -33.2744 -1.25651 83.2404
lradius 36.0767
lwrist -3.20431
lhand 0.620044 29.0381
lfingers 7.12502
lthumb 26.1841 57.2521
rfemur -32.0552 -7.89821 15.9482
rtibia 37.1176
rfoot -13.312 -12.6502
rtoes -5.59955
lfemur -18.2224 2.58184 -19.4236
ltibia 25.7441
lfoot -6.67786 3.03225
ltoes -12.7503
225
root -0.436446 18.3396 13.3767 -169.782 13.1114 174.136
lowerback 6.72102 0.854689 7.3513
upperback 4.5311 2.29858 5.9532
thorax 0.946136 1.54445 1.92537
lowerneck -6.39178 -15.7544 -17.3816
upperneck 26.4214 -19.5732 7.68622
head 12.379 -9.29095 2.88609
rclavicle 1.59028e-015 9.22361e-014
rhumerus 3.45122 -39.5086 -55.5453
rradius 32.8098
rwrist -29.7771
rhand 2.43574 13.8048
rfingers 7.12502
rthumb 27.9212 -14.1394
lclavicle 1.59028e-015 9.22361e-014
lhumerus -33.2257 -1.44561 83.0018
lradius 36.5227
lwrist -3.11894
lhand 1.07695 29.0144
lfingers 7.12502
lthumb 26.6215 57.1628
rfemur -32.026 -7.61301 15.5221
rtibia 37.1172
rfoot -13.416 -12.8632
rtoes -6.47991
lfemur -18.2917 2.42273 -19.5268
ltibia 25.0702
lfoot -6.14341 2.72347
ltoes -7.78219
226
root -0.446841 18.3444 13.3379 -169.71 13.1289 174.125
lowerback 6.73111 0.713778 7.39105
upperback 4.52795 2.13825 6.12424
thorax 0.928337 1.47216 2.09056
lowerneck -6.20124 -15.6294 -17.6605
upperneck 26.2513 -19.3842 7.73354
head 12.2873 -9.23806 2.99181
rclavicle -3.18055e-014 -1.145e-013
rhumerus 3.77488 -38.2649 -55.4585
rradius 33.475
rwrist -30.9784
rhand 2.93133 13.9748
rfingers 7.12502
rthumb 28.3949 -13.8914
lclavicle -3.18055e-014 -1.145e-013
lhumerus -33.4005 -1.25532 83.0195
lradius 36.9169
lwrist -3.16726
lhand 1.55649 29.0556
lfingers 7.12502
lthumb 27.0804 57.1335
rfemur -31.969 -7.41474 15.4065
rtibia 37.1444
rfoot -13.3356 -13.216
rtoes -6.40965
lfemur -18.1818 2.87041 -19.6082
ltibia 24.4016
lfoot -5.7734 2.27994
ltoes -12.658
227
root -0.460589 18.3497 13.301 -169.585 13.0496 173.839
lowerback 6.63874 0.562577 7.08227
upperback 4.45789 1.92234 6.29198
thorax 0.886297 1.35689 2.44879
lowerneck -6.16597 -15.5145 -17.8052
upperneck 26.2399 -19.1283 7.50241
head 12.2302 -9.15997 2.97935
rclavicle -3.65764e-014 -7.95139e-014
rhumerus 4.23954 -37.3918 -55.5034
rradius 34.059
rwrist -31.2907
rhand 3.22785 13.9126
rfingers 7.12502
rthumb 28.6783 -13.9061
lclavicle -3.65764e-014 -7.95139e-014
lhumerus -33.5065 -1.19429 83.1602
lradius 37.0494
lwrist -3.01584
lhand 1.34445 29.2231
lfingers 7.12502
lthumb 26.8775 57.3324
rfemur -32.0689 -7.61456 15.0829
rtibia 37.1544
rfoot -13.1655 -13.2455
rtoes -6.046
lfemur -18.2431 2.92281 -19.8701
ltibia 23.7874
lfoot -5.53331 1.97643
ltoes -15.6851
228
root -0.474821 18.3682 13.2616 -169.504 13.0656 173.565
lowerback 6.72961 0.499651 6.73473
upperback 4.31211 1.84714 6.47597
thorax 0.665621 1.3059 2.83103
lowerneck -6.15343 -15.5325 -18.0248
upperneck 26.4375 -19.0394 7.29752
head 12.3 -9.14984 2.94962
rclavicle 4.77083e-015 9.22361e-014
rhumerus 4.49326 -36.5385 -55.3451
rradius 34.6268
rwrist -31.4323
rhand 3.35009 13.5618
rfingers 7.12502
rthumb 28.795 -14.237
lclavicle 4.77083e-015 9.22361e-014
lhumerus -33.7155 -1.36275 83.4462
lradius 37.1221
lwrist -2.70467
lhand 0.998399 29.2005
lfingers 7.12502
lthumb 26.5463 57.3603
rfemur -32.1067 -7.90387 14.7747
rtibia 37.1197
rfoot -13.3246 -13.0308
rtoes -7.12077
lfemur -18.2675 2.84508 -20.0581
ltibia 23.2585
lfoot -5.24798 1.68183
ltoes -15.6221
229
root -0.488939 18.3844 13.2225 -169.45 13.2069 173.479
lowerback 6.87102 0.474879 6.62257
upperback 4.25961 1.84592 6.64349
thorax 0.52281 1.30487 3.06381
lowerneck -6.43307 -15.5761 -18.1913
upperneck 26.8024 -18.9612 7.10409
head 12.4915 -9.12831 2.89152
rclavicle 0 6.36111e-014
rhumerus 4.78542 -35.6824 -55.1587
rradius 35.1957
rwrist -32.2789
rhand 3.56516 13.1514
rfingers 7.12502
rthumb 29.0005 -14.6122
lclavicle 0 6.36111e-014
lhumerus -33.8224 -1.40156 83.6358
lradius 37.2727
lwrist -2.52755
lhand 0.700194 28.8645
lfingers 7.12502
lthumb 26.2609 57.0672
rfemur -32.0399 -7.94025 14.6051
rtibia 37.0333
rfoot -13.498 -12.8833
rtoes -8.51805
lfemur -18.1752 3.01653 -20.0894
ltibia 22.7144
lfoot -5.03356 1.30051
ltoes -13.2964
230
root -0.503599 18.3946 13.1878 -169.35 13.2763 173.568
lowerback 6.77032 0.417869 6.9833
upperback 4.36138 1.78018 6.60118
thorax 0.697469 1.28777 2.82939
lowerneck -6.64082 -15.5357 -17.9393
upperneck 26.8506 -18.8836 6.96098
head 12.4912 -9.08138 2.80657
rclavicle 7.31528e-014 2.29e-013
rhumerus 5.19412 -35.1013 -55.3198
rradius 35.7731
rwrist -33.654
rhand 3.92395 12.673
rfingers 7.12502
rthumb 29.3431 -15.0312
lclavicle 7.31528e-014 2.29e-013
lhumerus -33.5671 -1.6297 83.4427
lradius 37.32
lwrist -2.26153
lhand 0.477425 28.6541
lfingers 7.12502
lthumb 26.0476 56.8884
rfemur -31.9361 -7.76348 14.5788
rtibia 36.9064
rfoot -13.4945 -13.0176
rtoes -8.1797
lfemur -18.0846 3.06849 -19.8777
ltibia 22.1986
lfoot -4.8085 0.829029
ltoes -11.1682
231
root -0.518471 18.4069 13.1516 -169.342 13.3847 173.669
lowerback 6.71358 0.398453 7.40538
upperback 4.47746 1.76335 6.47956
thorax 0.867111 1.29539 2.47478
lowerneck -6.49825 -15.4972 -17.6354
upperneck 26.5741 -18.9322 7.01763
head 12.3246 -9.08513 2.79225
rclavicle -5.08889e-014 -1.49486e-013
rhumerus 5.5493 -34.809 -55.6176
rradius 36.3194
rwrist -34.5328
rhand 4.33216 12.1167
rfingers 7.12502
rthumb 29.7328 -15.5187
lclavicle -5.08889e-014 -1.49486e-013
lhumerus -33.2128 -1.98766 83.1456
lradius 37.1875
lwrist -2.08298
lhand 0.55182 28.395
lfingers 7.12502
lthumb 26.1188 56.6187
rfemur -31.7319 -7.72995 14.5979
rtibia 36.7549
rfoot -13.3681 -13.0086
rtoes -7.41848
lfemur -17.8565 3.05731 -19.6453
ltibia 21.7258
lfoot -4.47594 0.42453
ltoes -13.1695
232
root -0.53233 18.4091 13.1167 -169.334 13.6069 173.559
lowerback 6.77221 0.454585 7.43041
upperback 4.44038 1.83309 6.3852
thorax 0.800911 1.32314 2.35532
lowerneck -6.18168 -15.4836 -17.409
upperneck 26.2575 -19.014 7.06733
head 12.1235 -9.1146 2.79256
rclavicle 3.33958e-014 -1.27222e-014
rhumerus 5.6748 -34.5513 -55.7399
rradius 36.8328
rwrist -35.2703
rhand 4.90945 11.8069
rfingers 7.12502
rthumb 30.2836 -15.7286
lclavicle 3.33958e-014 -1.27222e-014
lhumerus -33.1484 -2.25263 82.9467
lradius 37.2182
lwrist -1.95487
lhand 0.731834 28.2113
lfingers 7.12502
lthumb 26.2912 56.4095
rfemur -31.6261 -7.69465 14.3933
rtibia 36.5855
rfoot -13.2748 -12.8885
rtoes -7.80721
lfemur -17.7096 3.358 -19.7571
ltibia 21.3808
lfoot -4.1453 -0.190989
ltoes -16.4416
233
root -0.544763 18.4113 13.0865 -169.189 13.8102 173.416
lowerback 6.75844 0.532405 7.2787
upperback 4.29554 1.91619 6.35615
thorax 0.654923 1.34744 2.39959
lowerneck -5.84674 -15.492 -17.1344
upperneck 25.9798 -19.0752 6.92551
head 11.9056 -9.14762 2.72344
rclavicle -3.97569e-014 -1.43125e-013
rhumerus 5.61639 -33.9801 -55.5795
rradius 37.3373
rwrist -36.4574
rhand 5.174 11.6442
rfingers 7.12502
rthumb 30.5359 -15.8447
lclavicle -3.97569e-014 -1.43125e-013
lhumerus -33.2537 -2.5378 82.87
lradius 37.3875
lwrist -1.79991
lhand 0.821072 28.4651
lfingers 7.12502
lthumb 26.3766 56.6505
rfemur -31.6817 -7.32769 14.1036
rtibia 36.4419
rfoot -13.4061 -13.063
rtoes -8.96755
lfemur -17.7524 3.52138 -19.8417
ltibia 21.0922
lfoot -4.07597 -0.929217
ltoes -15.615
234
root -0.560498 18.4277 13.0533 -169.025 13.9567 173.436
lowerback 6.68864 0.559636 7.26673
upperback 4.19576 1.95015 6.42402
thorax 0.587297 1.35959 2.47423
lowerneck -5.77164 -15.5052 -16.9497
upperneck 25.9306 -19.0666 6.69627
head 11.8214 -9.15225 2.62628
rclavicle -7.31528e-014 -8.26944e-014
rhumerus 5.71168 -33.3891 -55.4341
rradius 37.8864
rwrist -37.3683
rhand 4.92359 10.841
rfingers 7.12502
rthumb 30.2971 -16.6921
lclavicle -7.31528e-014 -8.26944e-014
lhumerus -33.3738 -2.73994 82.8999
lradius 37.6167
lwrist -1.74246
lhand 0.80135 29.131
lfingers 7.12502
lthumb 26.3577 57.3192
rfemur -31.6877 -7.00044 13.9802
rtibia 36.3715
rfoot -13.6211 -13.206
rtoes -9.72059
lfemur -17.67 3.32588 -19.6344
ltibia 20.7144
lfoot -4.16743 -1.31518
ltoes -13.829
